<?xml version="1.0" standalone="no"?>
<!DOCTYPE svg PUBLIC "-//W3C//DTD SVG 20010904//EN"
 "http://www.w3.org/TR/2001/REC-SVG-20010904/DTD/svg10.dtd">
<svg version="1.0" xmlns="http://www.w3.org/2000/svg"
 width="500.000000pt" height="500.000000pt" viewBox="0 0 500.000000 500.000000"
 preserveAspectRatio="xMidYMid meet">
<metadata>
Created by potrace 1.14, written by Peter Selinger 2001-2017
</metadata>
<g transform="translate(0.000000,500.000000) scale(0.100000,-0.100000)"
fill="#000000" stroke="none">
<path d="M1760 4438 c-114 -9 -113 -8 -105 -178 9 -183 10 -184 141 -188 73
-2 103 -7 116 -19 17 -15 18 -85 18 -1417 0 -771 -4 -1407 -8 -1414 -5 -7 -50
-19 -102 -27 -51 -9 -97 -18 -101 -21 -14 -8 -11 -258 3 -272 7 -7 43 -12 92
-12 45 0 201 -5 348 -11 287 -13 320 -10 332 34 17 63 -7 250 -35 278 -15 15
-34 19 -98 19 -61 0 -82 4 -92 17 -11 13 -15 123 -17 597 -2 320 0 595 3 613
8 44 44 54 196 52 68 -1 228 1 354 4 251 6 334 21 388 71 31 29 81 177 96 288
6 42 15 98 21 124 17 74 31 313 37 602 9 473 -19 599 -159 727 -70 64 -138
101 -232 125 -71 18 -110 19 -594 17 -284 -1 -555 -5 -602 -9z m1178 -393 c58
-48 65 -98 69 -500 5 -402 -6 -603 -35 -645 -10 -14 -40 -36 -68 -50 -48 -25
-54 -25 -318 -28 -149 -2 -280 -1 -292 2 -13 4 -25 14 -28 24 -13 42 -25 649
-18 911 7 262 9 284 27 297 15 11 80 14 326 14 l307 0 30 -25z"/>
</g>
</svg>
